# xmcd CD database file
#
# Track frame offsets:
#	150
#	32932
#	70947
#	98835
#	122397
#	158937
#	187132
#	213630
#	245727
#	271307
#
# Disc length: 4108 seconds
#
# Revision: 2
# Processed by: cddbd v1.5.2PL0 Copyright (c) Steve Scherf et al.
# Submitted via: CDex 1.70beta2
#
DISCID=95100a0a
DTITLE=Scott Hamilton - Back In New York
DYEAR=2005
DGENRE=Jazz
TTITLE0=What Is This Thing Called Love
TTITLE1=Wonder Why
TTITLE2=Blue 'N' Boogie
TTITLE3=I've Grown Accustomed To Her Face
TTITLE4=Lullaby Of The Leaves
TTITLE5=Fine And Dandy
TTITLE6=Bouncing With Bud
TTITLE7=Love Letters
TTITLE8=This Is Always
TTITLE9=I've Just Seen Her
EXTD=YEAR: 2005
EXTT0=
EXTT1=
EXTT2=
EXTT3=
EXTT4=
EXTT5=
EXTT6=
EXTT7=
EXTT8=
EXTT9=
PLAYORDER=
